# xmcd CD database file
#
# Track frame offsets:
#	150
#	23980
#	43990
#	62063
#	91955
#	119200
#	122875
#	149590
#	166513
#	186065
#	215733
#	234598
#	252345
#	270430
#	303133
#
# Disc length: 4323 seconds
#
# Revision: 3
# Processed by: cddbd v1.5.1PL2 Copyright (c) Steve Scherf et al.
# Submitted via: CDex 1.60beta1-cs1
#
DISCID=dd10e10f
DTITLE=HELLOWEEN - Walls Of Jericho/Judas [CD1]
DYEAR=1986
DGENRE=Metal
TTITLE0=Starlight
TTITLE1=Murderer
TTITLE2=Warrior
TTITLE3=Victim Of Fate
TTITLE4=Cry For Freedom
TTITLE5=Walls Of Jericho
TTITLE6=Ride The Sky
TTITLE7=Reptile
TTITLE8=Guardians
TTITLE9=Phantoms Of Death
TTITLE10=Metal Invaders
TTITLE11=Gorgar
TTITLE12=Heavy Metal (Is The Law)
TTITLE13=How Many Tears
TTITLE14=Judas
EXTD=YEAR: 1986
EXTT0=
EXTT1=
EXTT2=
EXTT3=
EXTT4=
EXTT5=
EXTT6=
EXTT7=
EXTT8=
EXTT9=
EXTT10=
EXTT11=
EXTT12=
EXTT13=
EXTT14=
PLAYORDER=
